# Made in Blockbench 4.10.2
mtllib horn_pipe.mtl

o cuboid0
v 0.5686297623428653 0.5061297645700551 0.09375000924720225
v 0.7561297623428651 0.18137023815089115 0.09374998990844965
v 0.5457531754730549 0.4207531754730547 0.12500000616480147
v 0.6707531754730547 0.20424682452694537 0.12499999327229974
v 0.24387023592370094 0.318629764570055 0.09375001009155044
v 0.4313702359237007 -0.006129761849108961 0.09374999075279784
v 0.32924682452694526 0.29575317547305463 0.12500000672770026
v 0.4542468245269451 0.07924682452694531 0.12499999383519853
vt 0.4375 0.5625
vt 0.625 0.5625
vt 0.59375 0.53125
vt 0.46875 0.53125
vt 0.25 0.4375
vt 0.28125 0.40625
vt 0.28125 0.59375
vt 0.25 0.5625
vt 0.1883074036982962 0.8133144179776258
vt 0.18668558202237417 1
vt 0 0.9991855820223742
vt 0.0008144179776258254 0.8116925963017038
vt 0.1875 0.625
vt 0.1875 0.8125
vt 0 0.8125
vt 0 0.625
vt 0.59375 0.53125
vt 0.625 0.5625
vt 0.4375 0.5625
vt 0.46875 0.53125
vt 0.28125 0.40625
vt 0.28125 0.59375
vt 0.25 0.5625
vt 0.25 0.4375
vn 0.3872983594276279 0.22360675881096748 0.8944271899929709
vn -0.38729830981385527 -0.22360683668899073 0.8944271920068588
vn -2.7734942073602102e-8 4.353513849582136e-8 -0.9999999999999987
vn 2.7734942073602102e-8 -4.353513849582136e-8 0.9999999999999987
vn -0.2236067729430924 0.38729829568172947 0.8944272140627229
vn 0.22360682255686504 -0.3872983735597527 0.8944271679371064
usemtl m_7fd0cf65-7967-d68a-f43a-e462a6d83af1
f 2/1/1 1/2/1 3/3/1 4/4/1
f 7/5/2 5/6/2 6/7/2 8/8/2
f 5/9/3 1/10/3 2/11/3 6/12/3
f 4/13/4 3/14/4 7/15/4 8/16/4
f 3/17/5 1/18/5 5/19/5 7/20/5
f 6/21/6 2/22/6 4/23/6 8/24/6
o cuboid1
v 0.5457531723129418 0.42075318154357527 0.12500000475720252
v 0.6707531723129418 0.20424683059746573 0.1249999956408272
v 0.5228765877365275 0.33537658773652734 0.3125000023786012
v 0.5853765877365273 0.2271234122634726 0.31249999782041354
v 0.32924682136683225 0.2957531815435753 0.12500000435917302
v 0.45424682136683214 0.07924683059746576 0.1249999952427977
v 0.4146234122634726 0.2728765877365274 0.31250000217958646
v 0.47712341226347255 0.16462341226347263 0.3124999976213988
vt 0.1875 0.75
vt 0.1875 0.875
vt 0.28125 0.84375
vt 0.28125 0.78125
vt 0.1875 0.96875
vt 0.28125 1
vt 0.28125 0.875
vt 0.1875 0.90625
vt 0 0.875
vt 0.125 0.875
vt 0.125 1
vt 0 1
vt 0.15625 0.65625
vt 0.15625 0.78125
vt 0.03125 0.78125
vt 0.03125 0.65625
vt 0.28125 0.84375
vt 0.1875 0.875
vt 0.1875 0.75
vt 0.28125 0.78125
vt 0.28125 0.875
vt 0.28125 1
vt 0.1875 0.96875
vt 0.1875 0.90625
vn 0.8215838415874318 0.47434163878703195 0.3162277675272535
vn -0.8215838309280669 -0.4743416592634815 0.3162277645064219
vn -1.685393594274004e-8 3.23761095128684e-8 -0.9999999999999993
vn 1.685393594274004e-8 -3.23761095128684e-8 0.9999999999999993
vn -0.4743416436955741 0.8215838260195241 0.31622780061104977
vn 0.474341654354939 -0.8215838464959735 0.3162277314226257
usemtl m_7fd0cf65-7967-d68a-f43a-e462a6d83af1
f 10/25/7 9/26/7 11/27/7 12/28/7
f 15/29/8 13/30/8 14/31/8 16/32/8
usemtl none
f 13/33/9 9/34/9 10/35/9 14/36/9
usemtl m_7fd0cf65-7967-d68a-f43a-e462a6d83af1
f 12/37/10 11/38/10 15/39/10 16/40/10
f 11/41/11 9/42/11 13/43/11 15/44/11
f 14/45/12 10/46/12 12/47/12 16/48/12
o cube1
v 0.5228765877365275 0.3353765877365274 0.875
v 0.5228765877365275 0.3353765877365274 0.3125
v 0.5853765877365275 0.22712341226347257 0.875
v 0.5853765877365275 0.22712341226347257 0.3125
v 0.4146234122634726 0.2728765877365274 0.875
v 0.4146234122634726 0.2728765877365274 0.3125
v 0.4771234122634726 0.1646234122634726 0.875
v 0.4771234122634726 0.1646234122634726 0.3125
vt 0.46875 0.34375
vt 0.46875 0.40625
vt 0.1875 0.40625
vt 0.1875 0.34375
vt 0.46875 0.28125
vt 0.46875 0.34375
vt 0.1875 0.34375
vt 0.1875 0.28125
vt 0.5625 0.53125
vt 0.5625 0.25
vt 0.625 0.25
vt 0.625 0.53125
vt 0.5 0.25
vt 0.5 0.53125
vt 0.5625 0.53125
vt 0.5625 0.25
vt 0.5 0.46875
vt 0.5 0.53125
vt 0.4375 0.53125
vt 0.4375 0.46875
vt 0.53125 0.90625
vt 0.53125 0.9375
vt 0.5 0.9375
vt 0.5 0.90625
vn 0.8660254037844387 0.49999999999999994 0
vn -0.8660254037844387 -0.49999999999999994 0
vn -0.49999999999999994 0.8660254037844387 0
vn 0.49999999999999994 -0.8660254037844387 0
vn 0 0 1
vn 0 0 -1
usemtl m_7fd0cf65-7967-d68a-f43a-e462a6d83af1
f 20/49/13 18/50/13 17/51/13 19/52/13
f 23/53/14 21/54/14 22/55/14 24/56/14
f 17/57/15 18/58/15 22/59/15 21/60/15
f 20/61/16 19/62/16 23/63/16 24/64/16
f 19/65/17 17/66/17 21/67/17 23/68/17
f 24/69/18 22/70/18 18/71/18 20/72/18
o cube0
v 0.625 0.375 0.9375
v 0.625 0.375 0.6875
v 0.625 0.125 0.9375
v 0.625 0.125 0.6875
v 0.375 0.375 0.9375
v 0.375 0.375 0.6875
v 0.375 0.125 0.9375
v 0.375 0.125 0.6875
vt 0.4375 0.625
vt 0.4375 0.75
vt 0.3125 0.75
vt 0.3125 0.625
vt 0.4375 0.5
vt 0.4375 0.625
vt 0.3125 0.625
vt 0.3125 0.5
vt 0.125 0.59375
vt 0.125 0.46875
vt 0.25 0.46875
vt 0.25 0.59375
vt 0.4375 0.75
vt 0.4375 0.875
vt 0.5625 0.875
vt 0.5625 0.75
vt 0.125 0.5
vt 0.125 0.625
vt 0 0.625
vt 0 0.5
vt 0.4375 0.75
vt 0.4375 0.875
vt 0.3125 0.875
vt 0.3125 0.75
vn 1 0 0
vn -1 0 0
vn 0 1 0
vn 0 -1 0
vn 0 0 1
vn 0 0 -1
usemtl m_7fd0cf65-7967-d68a-f43a-e462a6d83af1
f 28/73/19 26/74/19 25/75/19 27/76/19
f 31/77/20 29/78/20 30/79/20 32/80/20
f 25/81/21 26/82/21 30/83/21 29/84/21
f 28/85/22 27/86/22 31/87/22 32/88/22
f 27/89/23 25/90/23 29/91/23 31/92/23
f 32/93/24 30/94/24 26/95/24 28/96/24